<svg viewBox="0 0 1360 1820" xmlns="http://www.w3.org/2000/svg" font-family="-apple-system,BlinkMacSystemFont,'Segoe UI',system-ui,sans-serif">
<defs>
  <marker id="arr" markerWidth="8" markerHeight="6" refX="7" refY="3" orient="auto">
    <polygon points="0 0,8 3,0 6" fill="#3a4a7a"/>
  </marker>
  <marker id="arr-u" markerWidth="8" markerHeight="6" refX="7" refY="3" orient="auto">
    <polygon points="0 0,8 3,0 6" fill="#3b82f6"/>
  </marker>
  <marker id="arr-a" markerWidth="8" markerHeight="6" refX="7" refY="3" orient="auto">
    <polygon points="0 0,8 3,0 6" fill="#14b8a6"/>
  </marker>
  <marker id="arr-p" markerWidth="8" markerHeight="6" refX="7" refY="3" orient="auto">
    <polygon points="0 0,8 3,0 6" fill="#f59e0b"/>
  </marker>
  <marker id="arr-g" markerWidth="8" markerHeight="6" refX="7" refY="3" orient="auto">
    <polygon points="0 0,8 3,0 6" fill="#a78bfa"/>
  </marker>
</defs>

<!-- Background -->
<rect width="1360" height="1820" fill="#08091a"/>

<!-- ── TITLE ── -->
<text x="680" y="42" text-anchor="middle" font-size="18" font-weight="700" fill="#e2e8f0" letter-spacing="0.03em">Puhti Run — System Architecture</text>
<text x="680" y="62" text-anchor="middle" font-size="11" fill="#4a5578" font-family="'SF Mono','Fira Code',monospace">FastAPI · Head Node · Puhti HPC · SQLite · GitHub</text>

<!-- ── LEGEND ── -->
<g transform="translate(140,82)">
  <circle cx="0"   cy="6" r="5" fill="#3b82f6"/><text x="10" y="11" font-size="11" fill="#7886a8">User / Extension</text>
  <circle cx="160" cy="6" r="5" fill="#14b8a6"/><text x="170" y="11" font-size="11" fill="#7886a8">FastAPI · Head Node</text>
  <circle cx="340" cy="6" r="5" fill="#f59e0b"/><text x="350" y="11" font-size="11" fill="#7886a8">Puhti · Slurm</text>
  <circle cx="480" cy="6" r="5" fill="#a78bfa"/><text x="490" y="11" font-size="11" fill="#7886a8">External Services</text>
  <circle cx="640" cy="6" r="5" fill="#34d399"/><text x="650" y="11" font-size="11" fill="#7886a8">Admin Panel</text>
</g>

<!-- ══════════════════════════════════════════════════
     SECTION 1 — JOB SUBMISSION
     Columns: User(50), API(390), Puhti(730), Ext(1070)
     ══════════════════════════════════════════════════ -->

<!-- Section label -->
<text x="30" y="122" font-size="10" font-weight="700" letter-spacing="0.1em" fill="#2a3a6a" font-family="'SF Mono','Fira Code',monospace">① JOB SUBMISSION FLOW</text>

<!-- Column headers -->
<rect x="30"  y="130" width="330" height="32" rx="6" fill="#0d1e3d" stroke="#1e3a6e" stroke-width="1"/>
<text x="195" y="150" text-anchor="middle" font-size="11" font-weight="700" fill="#3b82f6" letter-spacing="0.06em">USER / EXTENSION</text>

<rect x="370" y="130" width="330" height="32" rx="6" fill="#051e1c" stroke="#0d3b38" stroke-width="1"/>
<text x="535" y="150" text-anchor="middle" font-size="11" font-weight="700" fill="#14b8a6" letter-spacing="0.06em">FASTAPI · HEAD NODE</text>

<rect x="710" y="130" width="330" height="32" rx="6" fill="#1e1200" stroke="#3d2800" stroke-width="1"/>
<text x="875" y="150" text-anchor="middle" font-size="11" font-weight="700" fill="#f59e0b" letter-spacing="0.06em">PUHTI · SLURM</text>

<rect x="1050" y="130" width="280" height="32" rx="6" fill="#130d2a" stroke="#2e1f5e" stroke-width="1"/>
<text x="1190" y="150" text-anchor="middle" font-size="11" font-weight="700" fill="#a78bfa" letter-spacing="0.06em">EXTERNAL SERVICES</text>

<!-- ── Step 1.1: Open Extension ── -->
<rect x="30" y="178" width="330" height="76" rx="7" fill="#0d1e3d" stroke="#1e3a6e" stroke-width="1"/>
<text x="46" y="196" font-size="9" font-weight="700" fill="#3b82f6" opacity="0.6" font-family="'SF Mono','Fira Code',monospace">1.1</text>
<text x="46" y="213" font-size="12.5" font-weight="600" fill="#3b82f6">Open Extension</text>
<text x="46" y="230" font-size="11" fill="#7886a8">JupyterLab sidebar loads the</text>
<text x="46" y="244" font-size="11" fill="#7886a8">Puhti Run panel.</text>

<!-- ── Step 1.2: List Envs ── -->
<rect x="370" y="178" width="330" height="76" rx="7" fill="#051e1c" stroke="#0d3b38" stroke-width="1"/>
<text x="386" y="196" font-size="9" font-weight="700" fill="#14b8a6" opacity="0.6" font-family="'SF Mono','Fira Code',monospace">1.2</text>
<text x="386" y="213" font-size="12.5" font-weight="600" fill="#14b8a6">List Environments</text>
<text x="386" y="230" font-size="11" fill="#7886a8">SSH scan envs/*/bin/python</text>
<text x="386" y="244" font-size="11" fill="#7886a8">→ return names to extension</text>

<!-- Arrow 1.1→1.2 -->
<line x1="360" y1="216" x2="370" y2="216" stroke="#3a4a7a" stroke-width="1.5" marker-end="url(#arr)"/>
<!-- Arrow 1.2→1.1 (response) -->
<line x1="370" y1="228" x2="360" y2="228" stroke="#3b82f6" stroke-width="1.5" marker-end="url(#arr-u)"/>

<!-- ── Step 1.3: Configure & Submit ── -->
<rect x="30" y="270" width="330" height="110" rx="7" fill="#0d1e3d" stroke="#1e3a6e" stroke-width="1"/>
<text x="46" y="288" font-size="9" font-weight="700" fill="#3b82f6" opacity="0.6" font-family="'SF Mono','Fira Code',monospace">1.3</text>
<text x="46" y="305" font-size="12.5" font-weight="600" fill="#3b82f6">Configure &amp; Submit Job</text>
<text x="46" y="322" font-size="11" fill="#7886a8">Select env, upload .ipynb +</text>
<text x="46" y="337" font-size="11" fill="#7886a8">requirements.txt, set partition /</text>
<text x="46" y="352" font-size="11" fill="#7886a8">CPUs / memory / time_hours.</text>
<rect x="46" y="360" width="290" height="14" rx="3" fill="#000820"/>
<text x="52" y="371" font-size="9.5" fill="#14b8a6" font-family="'SF Mono','Fira Code',monospace">POST /run-notebook</text>

<!-- ── Step 1.4: Validate ── -->
<rect x="370" y="270" width="330" height="74" rx="7" fill="#051e1c" stroke="#0d3b38" stroke-width="1"/>
<text x="386" y="288" font-size="9" font-weight="700" fill="#14b8a6" opacity="0.6" font-family="'SF Mono','Fira Code',monospace">1.4</text>
<text x="386" y="305" font-size="12.5" font-weight="600" fill="#14b8a6">Validate Request</text>
<text x="386" y="322" font-size="11" fill="#7886a8">Auth token · quota check</text>
<!-- check badges -->
<rect x="386" y="330" width="52" height="14" rx="3" fill="rgba(34,197,94,0.12)" stroke="rgba(34,197,94,0.25)" stroke-width="1"/>
<text x="412" y="340" text-anchor="middle" font-size="9" font-weight="700" fill="#22c55e">token ✓</text>
<rect x="444" y="330" width="76" height="14" rx="3" fill="rgba(249,115,22,0.12)" stroke="rgba(249,115,22,0.25)" stroke-width="1"/>
<text x="482" y="340" text-anchor="middle" font-size="9" font-weight="700" fill="#f97316">≤ MAX_JOBS</text>
<rect x="526" y="330" width="52" height="14" rx="3" fill="rgba(239,68,68,0.12)" stroke="rgba(239,68,68,0.25)" stroke-width="1"/>
<text x="552" y="340" text-anchor="middle" font-size="9" font-weight="700" fill="#ef4444">429 over</text>

<!-- Arrow 1.3→1.4 -->
<line x1="360" y1="310" x2="370" y2="310" stroke="#3a4a7a" stroke-width="1.5" marker-end="url(#arr)"/>

<!-- ── Step 1.5: Convert & rsync ── -->
<rect x="370" y="360" width="330" height="84" rx="7" fill="#051e1c" stroke="#0d3b38" stroke-width="1"/>
<text x="386" y="378" font-size="9" font-weight="700" fill="#14b8a6" opacity="0.6" font-family="'SF Mono','Fira Code',monospace">1.5</text>
<text x="386" y="395" font-size="12.5" font-weight="600" fill="#14b8a6">Convert &amp; Stage</text>
<text x="386" y="412" font-size="11" fill="#7886a8">nbconvert .ipynb → script.py</text>
<text x="386" y="427" font-size="11" fill="#7886a8">strip magics · UUID job dir</text>
<rect x="386" y="432" width="290" height="7" rx="2" fill="#000820"/>
<text x="390" y="439" font-size="9" fill="#14b8a6" font-family="'SF Mono','Fira Code',monospace">rsync → /scratch/.../UUID/</text>

<!-- ── Step 1.6: sbatch ── -->
<rect x="370" y="460" width="330" height="110" rx="7" fill="#051e1c" stroke="#0d3b38" stroke-width="1"/>
<text x="386" y="478" font-size="9" font-weight="700" fill="#14b8a6" opacity="0.6" font-family="'SF Mono','Fira Code',monospace">1.6</text>
<text x="386" y="495" font-size="12.5" font-weight="600" fill="#14b8a6">Submit to Slurm</text>
<rect x="386" y="502" width="298" height="60" rx="4" fill="#000820"/>
<text x="392" y="516" font-size="9.5" fill="#14b8a6" font-family="'SF Mono','Fira Code',monospace">sbatch --partition=gpu</text>
<text x="392" y="530" font-size="9.5" fill="#14b8a6" font-family="'SF Mono','Fira Code',monospace">  --gres=gpu:v100:1</text>
<text x="392" y="544" font-size="9.5" fill="#14b8a6" font-family="'SF Mono','Fira Code',monospace">  --export=ALL,</text>
<text x="392" y="558" font-size="9.5" fill="#14b8a6" font-family="'SF Mono','Fira Code',monospace">    VENV_PATH=.../envs/pytorch9</text>

<!-- Arrow 1.5→1.6 puhti (rsync) -->
<line x1="700" y1="400" x2="710" y2="400" stroke="#3a4a7a" stroke-width="1.5" marker-end="url(#arr)"/>
<!-- Arrow sbatch to puhti -->
<line x1="700" y1="515" x2="710" y2="515" stroke="#3a4a7a" stroke-width="1.5" marker-end="url(#arr)"/>

<!-- ── Step 1.7: Compute Node ── -->
<rect x="710" y="270" width="330" height="310" rx="7" fill="#1e1200" stroke="#3d2800" stroke-width="1"/>
<text x="726" y="288" font-size="9" font-weight="700" fill="#f59e0b" opacity="0.6" font-family="'SF Mono','Fira Code',monospace">1.7</text>
<text x="726" y="305" font-size="12.5" font-weight="600" fill="#f59e0b">Compute Node Runs Job</text>
<text x="726" y="322" font-size="11" fill="#7886a8">generic_run.sh on GPU node</text>
<rect x="726" y="330" width="298" height="128" rx="4" fill="#100900"/>
<text x="732" y="344" font-size="9.5" fill="#f59e0b" font-family="'SF Mono','Fira Code',monospace">module load python-data</text>
<text x="732" y="358" font-size="9.5" fill="#f59e0b" font-family="'SF Mono','Fira Code',monospace">PYTHON=$VENV_PATH/bin/python</text>
<text x="732" y="372" font-size="9.5" fill="#7886a8" font-family="'SF Mono','Fira Code',monospace"> </text>
<text x="732" y="386" font-size="9.5" fill="#f59e0b" font-family="'SF Mono','Fira Code',monospace">$PIP install -r requirements.txt</text>
<text x="732" y="400" font-size="9.5" fill="#f59e0b" font-family="'SF Mono','Fira Code',monospace">  --target .packages/</text>
<text x="732" y="414" font-size="9.5" fill="#7886a8" font-family="'SF Mono','Fira Code',monospace"> </text>
<text x="732" y="428" font-size="9.5" fill="#f59e0b" font-family="'SF Mono','Fira Code',monospace">PYTHONPATH=.packages \</text>
<text x="732" y="442" font-size="9.5" fill="#f59e0b" font-family="'SF Mono','Fira Code',monospace">$PYTHON script.py</text>
<text x="726" y="476" font-size="11" fill="#7886a8">stdout/stderr → files in UUID dir</text>
<!-- badges -->
<rect x="726" y="483" width="82" height="14" rx="3" fill="rgba(34,197,94,0.12)" stroke="rgba(34,197,94,0.25)" stroke-width="1"/>
<text x="767" y="493" text-anchor="middle" font-size="9" font-weight="700" fill="#22c55e">GPU via --nv</text>
<rect x="816" y="483" width="100" height="14" rx="3" fill="rgba(148,163,184,0.08)" stroke="#1e2650" stroke-width="1"/>
<text x="866" y="493" text-anchor="middle" font-size="9" font-weight="700" fill="#7886a8">pip: job-isolated</text>
<text x="726" y="522" font-size="11" fill="#7886a8">Results rsync'd back to NFS on</text>
<text x="726" y="537" font-size="11" fill="#7886a8">completion → /data/hbv/runs/</text>
<text x="726" y="558" font-size="11" fill="#7886a8">DB updated: done / failed</text>

<!-- Arrow rsync back -->
<line x1="710" y1="535" x2="700" y2="535" stroke="#f59e0b" stroke-width="1.5" marker-end="url(#arr-p)"/>

<!-- ── Step 1.8: Poll Status ── -->
<rect x="30" y="396" width="330" height="60" rx="7" fill="#0d1e3d" stroke="#1e3a6e" stroke-width="1"/>
<text x="46" y="414" font-size="9" font-weight="700" fill="#3b82f6" opacity="0.6" font-family="'SF Mono','Fira Code',monospace">1.8</text>
<text x="46" y="431" font-size="12.5" font-weight="600" fill="#3b82f6">Poll Status</text>
<text x="46" y="448" font-size="11" fill="#7886a8">GET /status/{job_id} every 5 s → queued / running / done / failed</text>

<!-- Arrow poll -->
<line x1="360" y1="426" x2="370" y2="426" stroke="#3a4a7a" stroke-width="1.5" marker-end="url(#arr)"/>

<!-- ── Step 1.9: Status Check ── -->
<rect x="370" y="586" width="330" height="64" rx="7" fill="#051e1c" stroke="#0d3b38" stroke-width="1"/>
<text x="386" y="604" font-size="9" font-weight="700" fill="#14b8a6" opacity="0.6" font-family="'SF Mono','Fira Code',monospace">1.9</text>
<text x="386" y="621" font-size="12.5" font-weight="600" fill="#14b8a6">Status Check &amp; Sync</text>
<text x="386" y="638" font-size="11" fill="#7886a8">squeue → done: rsync results ← Puhti</text>

<!-- ── Email notification ── -->
<rect x="1050" y="586" width="280" height="64" rx="7" fill="#130d2a" stroke="#2e1f5e" stroke-width="1"/>
<text x="1066" y="604" font-size="9" font-weight="700" fill="#a78bfa" opacity="0.6" font-family="'SF Mono','Fira Code',monospace">1.9b</text>
<text x="1066" y="621" font-size="12.5" font-weight="600" fill="#a78bfa">Email Notification</text>
<text x="1066" y="638" font-size="11" fill="#7886a8">done ✓ or failed ✗ + stderr tail</text>

<!-- Arrow to email -->
<line x1="700" y1="618" x2="1050" y2="618" stroke="#3a4a7a" stroke-width="1.5" stroke-dasharray="5,3" marker-end="url(#arr)"/>

<!-- ── Step 1.10: View Results ── -->
<rect x="30" y="472" width="330" height="60" rx="7" fill="#0d1e3d" stroke="#1e3a6e" stroke-width="1"/>
<text x="46" y="490" font-size="9" font-weight="700" fill="#3b82f6" opacity="0.6" font-family="'SF Mono','Fira Code',monospace">1.10</text>
<text x="46" y="507" font-size="12.5" font-weight="600" fill="#3b82f6">View Results</text>
<text x="46" y="524" font-size="11" fill="#7886a8">Download stdout, output files, plots via extension</text>

<!-- Divider -->
<line x1="30" y1="668" x2="1330" y2="668" stroke="#1e2650" stroke-width="1"/>

<!-- ══════════════════════════════════════════════════
     SECTION 2 — ENV REQUEST
     Cols: User(30), API(300), Admin(570), Puhti(840), Ext(1110)
     ══════════════════════════════════════════════════ -->

<text x="30" y="692" font-size="10" font-weight="700" letter-spacing="0.1em" fill="#2a3a6a" font-family="'SF Mono','Fira Code',monospace">② ENVIRONMENT REQUEST &amp; BUILD FLOW</text>

<!-- Column headers -->
<rect x="30"   y="700" width="246" height="30" rx="6" fill="#0d1e3d" stroke="#1e3a6e" stroke-width="1"/>
<text x="153"  y="720" text-anchor="middle" font-size="10" font-weight="700" fill="#3b82f6" letter-spacing="0.06em">USER</text>

<rect x="284"  y="700" width="246" height="30" rx="6" fill="#051e1c" stroke="#0d3b38" stroke-width="1"/>
<text x="407"  y="720" text-anchor="middle" font-size="10" font-weight="700" fill="#14b8a6" letter-spacing="0.06em">FASTAPI · HEAD NODE</text>

<rect x="538"  y="700" width="246" height="30" rx="6" fill="#051a10" stroke="#0d3d26" stroke-width="1"/>
<text x="661"  y="720" text-anchor="middle" font-size="10" font-weight="700" fill="#34d399" letter-spacing="0.06em">ADMIN PANEL</text>

<rect x="792"  y="700" width="246" height="30" rx="6" fill="#1e1200" stroke="#3d2800" stroke-width="1"/>
<text x="915"  y="720" text-anchor="middle" font-size="10" font-weight="700" fill="#f59e0b" letter-spacing="0.06em">PUHTI · SLURM</text>

<rect x="1046" y="700" width="280" height="30" rx="6" fill="#130d2a" stroke="#2e1f5e" stroke-width="1"/>
<text x="1186" y="720" text-anchor="middle" font-size="10" font-weight="700" fill="#a78bfa" letter-spacing="0.06em">EXTERNAL SERVICES</text>

<!-- ── 2.1 Request env ── -->
<rect x="30" y="746" width="246" height="86" rx="7" fill="#0d1e3d" stroke="#1e3a6e" stroke-width="1"/>
<text x="46" y="764" font-size="9" font-weight="700" fill="#3b82f6" opacity="0.6" font-family="'SF Mono','Fira Code',monospace">2.1</text>
<text x="46" y="781" font-size="12.5" font-weight="600" fill="#3b82f6">Request Environment</text>
<text x="46" y="798" font-size="11" fill="#7886a8">Fill name + package list in</text>
<text x="46" y="813" font-size="11" fill="#7886a8">"Request Container" tab.</text>
<rect x="46" y="820" width="210" height="8" rx="2" fill="#000820"/>
<text x="50" y="828" font-size="9" fill="#3b82f6" font-family="'SF Mono','Fira Code',monospace">POST /request-container-simple</text>

<!-- ── 2.2 Store request ── -->
<rect x="284" y="746" width="246" height="86" rx="7" fill="#051e1c" stroke="#0d3b38" stroke-width="1"/>
<text x="300" y="764" font-size="9" font-weight="700" fill="#14b8a6" opacity="0.6" font-family="'SF Mono','Fira Code',monospace">2.2</text>
<text x="300" y="781" font-size="12.5" font-weight="600" fill="#14b8a6">Store Request</text>
<text x="300" y="798" font-size="11" fill="#7886a8">Validate name (^[a-z0-9-]+$)</text>
<text x="300" y="813" font-size="11" fill="#7886a8">INSERT → status: pending</text>
<rect x="300" y="820" width="210" height="8" rx="2" fill="#000820"/>
<text x="304" y="828" font-size="9" fill="#14b8a6" font-family="'SF Mono','Fira Code',monospace">DB: container_requests</text>

<!-- Arrow 2.1→2.2 -->
<line x1="276" y1="789" x2="284" y2="789" stroke="#3a4a7a" stroke-width="1.5" marker-end="url(#arr)"/>

<!-- ── 2.3 Await approval ── -->
<rect x="30" y="848" width="246" height="60" rx="7" fill="#0d1e3d" stroke="#1e3a6e" stroke-width="1"/>
<text x="46" y="866" font-size="9" font-weight="700" fill="#3b82f6" opacity="0.6" font-family="'SF Mono','Fira Code',monospace">2.3</text>
<text x="46" y="883" font-size="12.5" font-weight="600" fill="#3b82f6">Await Approval</text>
<text x="46" y="900" font-size="11" fill="#7886a8">Extension polls status: pending → building → ready</text>

<!-- ── 2.4 Admin review ── -->
<rect x="538" y="746" width="246" height="86" rx="7" fill="#051a10" stroke="#0d3d26" stroke-width="1"/>
<text x="554" y="764" font-size="9" font-weight="700" fill="#34d399" opacity="0.6" font-family="'SF Mono','Fira Code',monospace">2.4</text>
<text x="554" y="781" font-size="12.5" font-weight="600" fill="#34d399">Review Request</text>
<text x="554" y="798" font-size="11" fill="#7886a8">Admin opens Environment</text>
<text x="554" y="813" font-size="11" fill="#7886a8">Requests tab → sees packages</text>
<rect x="554" y="820" width="68" height="14" rx="3" fill="rgba(34,197,94,0.12)" stroke="rgba(34,197,94,0.25)" stroke-width="1"/>
<text x="588" y="830" text-anchor="middle" font-size="9" font-weight="700" fill="#22c55e">Approve</text>
<rect x="630" y="820" width="54" height="14" rx="3" fill="rgba(239,68,68,0.12)" stroke="rgba(239,68,68,0.25)" stroke-width="1"/>
<text x="657" y="830" text-anchor="middle" font-size="9" font-weight="700" fill="#ef4444">Reject</text>

<!-- ── 2.5 Submit build ── -->
<rect x="284" y="848" width="246" height="100" rx="7" fill="#051e1c" stroke="#0d3b38" stroke-width="1"/>
<text x="300" y="866" font-size="9" font-weight="700" fill="#14b8a6" opacity="0.6" font-family="'SF Mono','Fira Code',monospace">2.5</text>
<text x="300" y="883" font-size="12.5" font-weight="600" fill="#14b8a6">Submit Venv Build</text>
<text x="300" y="900" font-size="11" fill="#7886a8">Write build script to Puhti</text>
<text x="300" y="915" font-size="11" fill="#7886a8">via SSH stdin → sbatch</text>
<text x="300" y="930" font-size="11" fill="#7886a8">DB: status=building, job_id</text>

<!-- Arrow admin approve → api -->
<line x1="538" y1="789" x2="530" y2="789" stroke="#34d399" stroke-width="1.5" marker-end="url(#arr-a)"/>
<line x1="530" y1="789" x2="530" y2="898" stroke="#34d399" stroke-width="1.5"/>
<line x1="530" y1="898" x2="530" y2="898" stroke="#34d399" stroke-width="1.5" marker-end="url(#arr-a)"/>

<!-- Arrow api → puhti build -->
<line x1="530" y1="898" x2="792" y2="898" stroke="#3a4a7a" stroke-width="1.5" marker-end="url(#arr)"/>

<!-- ── 2.5b GitHub record ── -->
<rect x="1046" y="746" width="280" height="86" rx="7" fill="#130d2a" stroke="#2e1f5e" stroke-width="1"/>
<text x="1062" y="764" font-size="9" font-weight="700" fill="#a78bfa" opacity="0.6" font-family="'SF Mono','Fira Code',monospace">2.5b</text>
<text x="1062" y="781" font-size="12.5" font-weight="600" fill="#a78bfa">GitHub Record Commit</text>
<text x="1062" y="798" font-size="11" fill="#7886a8">Commits envs/name.txt to repo</text>
<text x="1062" y="813" font-size="11" fill="#7886a8">with requester, date, job ID</text>
<rect x="1062" y="820" width="240" height="8" rx="2" fill="#080516"/>
<text x="1066" y="828" font-size="9" fill="#a78bfa" font-family="'SF Mono','Fira Code',monospace">PUT /repos/.../contents/envs/name.txt</text>

<!-- Arrow api → github -->
<line x1="530" y1="870" x2="1046" y2="800" stroke="#3a4a7a" stroke-width="1.5" stroke-dasharray="4,3" marker-end="url(#arr)"/>

<!-- ── 2.6 Build venv ── -->
<rect x="792" y="848" width="246" height="180" rx="7" fill="#1e1200" stroke="#3d2800" stroke-width="1"/>
<text x="808" y="866" font-size="9" font-weight="700" fill="#f59e0b" opacity="0.6" font-family="'SF Mono','Fira Code',monospace">2.6</text>
<text x="808" y="883" font-size="12.5" font-weight="600" fill="#f59e0b">Build Venv on Small Node</text>
<rect x="808" y="891" width="214" height="108" rx="4" fill="#100900"/>
<text x="814" y="906" font-size="9.5" fill="#f59e0b" font-family="'SF Mono','Fira Code',monospace">module load python-data</text>
<text x="814" y="920" font-size="9.5" fill="#7886a8" font-family="'SF Mono','Fira Code',monospace"># → Python 3.11</text>
<text x="814" y="934" font-size="9.5" fill="#f59e0b" font-family="'SF Mono','Fira Code',monospace">python3 -m venv $VENV</text>
<text x="814" y="948" font-size="9.5" fill="#f59e0b" font-family="'SF Mono','Fira Code',monospace">$VENV/bin/pip install \</text>
<text x="814" y="962" font-size="9.5" fill="#f59e0b" font-family="'SF Mono','Fira Code',monospace">  --index-url .../cu121 \</text>
<text x="814" y="976" font-size="9.5" fill="#f59e0b" font-family="'SF Mono','Fira Code',monospace">  torch torchvision</text>
<text x="814" y="990" font-size="9.5" fill="#f59e0b" font-family="'SF Mono','Fira Code',monospace">echo VENV_BUILD_SUCCESS</text>
<rect x="808" y="1006" width="100" height="14" rx="3" fill="rgba(34,197,94,0.12)" stroke="rgba(34,197,94,0.25)" stroke-width="1"/>
<text x="858" y="1016" text-anchor="middle" font-size="9" font-weight="700" fill="#22c55e">~5 min total</text>
<text x="808" y="1026" font-size="10" fill="#7886a8">TMPDIR → scratch (avoids /tmp overflow)</text>

<!-- ── 2.6b View log ── -->
<rect x="538" y="848" width="246" height="60" rx="7" fill="#051a10" stroke="#0d3d26" stroke-width="1"/>
<text x="554" y="866" font-size="9" font-weight="700" fill="#34d399" opacity="0.6" font-family="'SF Mono','Fira Code',monospace">2.6b</text>
<text x="554" y="883" font-size="12.5" font-weight="600" fill="#34d399">View Build Log</text>
<text x="554" y="900" font-size="11" fill="#7886a8">Admin clicks View Log → SSH cat build-name-jobid.out</text>

<!-- ── 2.7 Poller ── -->
<rect x="284" y="964" width="246" height="110" rx="7" fill="#051e1c" stroke="#0d3b38" stroke-width="1"/>
<text x="300" y="982" font-size="9" font-weight="700" fill="#14b8a6" opacity="0.6" font-family="'SF Mono','Fira Code',monospace">2.7</text>
<text x="300" y="999" font-size="12.5" font-weight="600" fill="#14b8a6">Background Poller (60 s)</text>
<text x="300" y="1016" font-size="11" fill="#7886a8">Checks all 'building' rows via</text>
<text x="300" y="1031" font-size="11" fill="#7886a8">sacct → COMPLETED</text>
<text x="300" y="1046" font-size="11" fill="#7886a8">Verifies bin/python exists</text>
<rect x="300" y="1053" width="82" height="14" rx="3" fill="rgba(34,197,94,0.12)" stroke="rgba(34,197,94,0.25)" stroke-width="1"/>
<text x="341" y="1063" text-anchor="middle" font-size="9" font-weight="700" fill="#22c55e">→ status: ready</text>
<rect x="390" y="1053" width="82" height="14" rx="3" fill="rgba(239,68,68,0.12)" stroke="rgba(239,68,68,0.25)" stroke-width="1"/>
<text x="431" y="1063" text-anchor="middle" font-size="9" font-weight="700" fill="#ef4444">FAILED → failed</text>

<!-- Arrow puhti done → poller -->
<line x1="792" y1="1000" x2="530" y2="1010" stroke="#f59e0b" stroke-width="1.5" stroke-dasharray="4,3" marker-end="url(#arr-a)"/>

<!-- ── 2.8 Ready email ── -->
<rect x="1046" y="848" width="280" height="60" rx="7" fill="#130d2a" stroke="#2e1f5e" stroke-width="1"/>
<text x="1062" y="866" font-size="9" font-weight="700" fill="#a78bfa" opacity="0.6" font-family="'SF Mono','Fira Code',monospace">2.8b</text>
<text x="1062" y="883" font-size="12.5" font-weight="600" fill="#a78bfa">Ready Email</text>
<text x="1062" y="900" font-size="11" fill="#7886a8">SMTP → "your env is ready" → user</text>

<!-- Arrow poller → email -->
<line x1="530" y1="1010" x2="1046" y2="878" stroke="#3a4a7a" stroke-width="1.5" stroke-dasharray="4,3" marker-end="url(#arr)"/>

<!-- ── 2.9 Env ready ── -->
<rect x="30" y="924" width="246" height="60" rx="7" fill="#0d1e3d" stroke="#1e3a6e" stroke-width="1"/>
<text x="46" y="942" font-size="9" font-weight="700" fill="#3b82f6" opacity="0.6" font-family="'SF Mono','Fira Code',monospace">2.9</text>
<text x="46" y="959" font-size="12.5" font-weight="600" fill="#3b82f6">Environment Ready</text>
<text x="46" y="976" font-size="11" fill="#7886a8">Appears in dropdown → submit jobs now</text>

<!-- Poller → user -->
<line x1="284" y1="1010" x2="153" y2="984" stroke="#14b8a6" stroke-width="1.5" stroke-dasharray="4,3" marker-end="url(#arr-a)"/>

<!-- Divider -->
<line x1="30" y1="1100" x2="1330" y2="1100" stroke="#1e2650" stroke-width="1"/>

<!-- ══════════════════════════════════════════════════
     SECTION 3 — CHECKS REFERENCE
     ══════════════════════════════════════════════════ -->
<text x="30" y="1124" font-size="10" font-weight="700" letter-spacing="0.1em" fill="#2a3a6a" font-family="'SF Mono','Fira Code',monospace">③ CHECKS &amp; GUARDS REFERENCE</text>

<!-- Row 1 checks -->
<rect x="30"   y="1136" width="310" height="78" rx="7" fill="#051e1c" stroke="#0d3b38" stroke-width="1"/>
<text x="46"   y="1154" font-size="12" font-weight="600" fill="#14b8a6">Authentication</text>
<text x="46"   y="1170" font-size="11" fill="#7886a8">x-jupyterhub-token validated</text>
<text x="46"   y="1185" font-size="11" fill="#7886a8">against JupyterHub API.</text>
<rect x="46"   y="1196" width="60" height="12" rx="3" fill="rgba(239,68,68,0.12)" stroke="rgba(239,68,68,0.25)" stroke-width="1"/>
<text x="76"   y="1205" text-anchor="middle" font-size="9" font-weight="700" fill="#ef4444">401 unauth</text>

<rect x="350"  y="1136" width="310" height="78" rx="7" fill="#051e1c" stroke="#0d3b38" stroke-width="1"/>
<text x="366"  y="1154" font-size="12" font-weight="600" fill="#14b8a6">Per-user Job Quota</text>
<text x="366"  y="1170" font-size="11" fill="#7886a8">Max concurrent active jobs</text>
<text x="366"  y="1185" font-size="11" fill="#7886a8">enforced before sbatch.</text>
<rect x="366"  y="1196" width="72" height="12" rx="3" fill="rgba(239,68,68,0.12)" stroke="rgba(239,68,68,0.25)" stroke-width="1"/>
<text x="402"  y="1205" text-anchor="middle" font-size="9" font-weight="700" fill="#ef4444">429 over quota</text>

<rect x="670"  y="1136" width="310" height="78" rx="7" fill="#051e1c" stroke="#0d3b38" stroke-width="1"/>
<text x="686"  y="1154" font-size="12" font-weight="600" fill="#14b8a6">100 GB Disk Quota</text>
<text x="686"  y="1170" font-size="11" fill="#7886a8">Total output checked per</text>
<text x="686"  y="1185" font-size="11" fill="#7886a8">user across all jobs.</text>
<rect x="686"  y="1196" width="88" height="12" rx="3" fill="rgba(239,68,68,0.12)" stroke="rgba(239,68,68,0.25)" stroke-width="1"/>
<text x="730"  y="1205" text-anchor="middle" font-size="9" font-weight="700" fill="#ef4444">507 storage full</text>

<rect x="990"  y="1136" width="310" height="78" rx="7" fill="#051a10" stroke="#0d3d26" stroke-width="1"/>
<text x="1006" y="1154" font-size="12" font-weight="600" fill="#34d399">Admin Authentication</text>
<text x="1006" y="1170" font-size="11" fill="#7886a8">GitHub OAuth + HMAC-signed</text>
<text x="1006" y="1185" font-size="11" fill="#7886a8">session cookie. ADMIN_ALLOWED_USERS.</text>
<rect x="1006" y="1196" width="64" height="12" rx="3" fill="rgba(239,68,68,0.12)" stroke="rgba(239,68,68,0.25)" stroke-width="1"/>
<text x="1038" y="1205" text-anchor="middle" font-size="9" font-weight="700" fill="#ef4444">401 / redirect</text>

<!-- Row 2 checks -->
<rect x="30"   y="1230" width="310" height="78" rx="7" fill="#1e1200" stroke="#3d2800" stroke-width="1"/>
<text x="46"   y="1248" font-size="12" font-weight="600" fill="#f59e0b">CORS Lockdown</text>
<text x="46"   y="1264" font-size="11" fill="#7886a8">Only hbv.we3data.com and</text>
<text x="46"   y="1279" font-size="11" fill="#7886a8">diwa-data-lab-vre.rahtiapp.fi.</text>
<rect x="46"   y="1290" width="108" height="12" rx="3" fill="rgba(148,163,184,0.08)" stroke="#1e2650" stroke-width="1"/>
<text x="100"  y="1299" text-anchor="middle" font-size="9" font-weight="700" fill="#7886a8">CORS_ALLOWED_ORIGINS</text>

<rect x="350"  y="1230" width="310" height="78" rx="7" fill="#1e1200" stroke="#3d2800" stroke-width="1"/>
<text x="366"  y="1248" font-size="12" font-weight="600" fill="#f59e0b">Partition Time Caps</text>
<text x="366"  y="1264" font-size="11" fill="#7886a8">Max wall-time per partition</text>
<text x="366"  y="1279" font-size="11" fill="#7886a8">enforced by API before sbatch.</text>
<rect x="366"  y="1290" width="72" height="12" rx="3" fill="rgba(249,115,22,0.12)" stroke="rgba(249,115,22,0.25)" stroke-width="1"/>
<text x="402"  y="1299" text-anchor="middle" font-size="9" font-weight="700" fill="#f97316">clamped silently</text>

<rect x="670"  y="1230" width="310" height="78" rx="7" fill="#051e1c" stroke="#0d3b38" stroke-width="1"/>
<text x="686"  y="1248" font-size="12" font-weight="600" fill="#14b8a6">Env Name Validation</text>
<text x="686"  y="1264" font-size="11" fill="#7886a8">^[a-z0-9-]+$ regex. Prevents</text>
<text x="686"  y="1279" font-size="11" fill="#7886a8">path traversal + shell injection.</text>
<rect x="686"  y="1290" width="60" height="12" rx="3" fill="rgba(239,68,68,0.12)" stroke="rgba(239,68,68,0.25)" stroke-width="1"/>
<text x="716"  y="1299" text-anchor="middle" font-size="9" font-weight="700" fill="#ef4444">400 bad name</text>

<rect x="990"  y="1230" width="310" height="78" rx="7" fill="#051e1c" stroke="#0d3b38" stroke-width="1"/>
<text x="1006" y="1248" font-size="12" font-weight="600" fill="#14b8a6">Rotating Logs</text>
<text x="1006" y="1264" font-size="11" fill="#7886a8">All key events logged: job_submitted,</text>
<text x="1006" y="1279" font-size="11" fill="#7886a8">status_change, sbatch_failed, venv_ready.</text>
<rect x="1006" y="1290" width="96" height="12" rx="3" fill="rgba(148,163,184,0.08)" stroke="#1e2650" stroke-width="1"/>
<text x="1054" y="1299" text-anchor="middle" font-size="9" font-weight="700" fill="#7886a8">10 MB × 5 files</text>

<!-- Secure cookie row -->
<rect x="30" y="1324" width="310" height="60" rx="7" fill="#130d2a" stroke="#2e1f5e" stroke-width="1"/>
<text x="46" y="1342" font-size="12" font-weight="600" fill="#a78bfa">Secure Cookie</text>
<text x="46" y="1358" font-size="11" fill="#7886a8">Admin session: httponly, secure,</text>
<text x="46" y="1373" font-size="11" fill="#7886a8">samesite=lax, 7-day max_age.</text>

<rect x="350" y="1324" width="310" height="60" rx="7" fill="#051e1c" stroke="#0d3b38" stroke-width="1"/>
<text x="366" y="1342" font-size="12" font-weight="600" fill="#14b8a6">SSH ControlMaster</text>
<text x="366" y="1358" font-size="11" fill="#7886a8">Connection reuse via ControlMaster=auto,</text>
<text x="366" y="1373" font-size="11" fill="#7886a8">ControlPersist=300 s, /tmp/ssh-puhti-*</text>

<rect x="670" y="1324" width="310" height="60" rx="7" fill="#051a10" stroke="#0d3d26" stroke-width="1"/>
<text x="686" y="1342" font-size="12" font-weight="600" fill="#34d399">Admin Approval Gate</text>
<text x="686" y="1358" font-size="11" fill="#7886a8">All env build requests require explicit</text>
<text x="686" y="1373" font-size="11" fill="#7886a8">admin approval before Slurm build job.</text>

<rect x="990" y="1324" width="310" height="60" rx="7" fill="#130d2a" stroke="#2e1f5e" stroke-width="1"/>
<text x="1006" y="1342" font-size="12" font-weight="600" fill="#a78bfa">GitHub Audit Trail</text>
<text x="1006" y="1358" font-size="11" fill="#7886a8">Every approved env committed to</text>
<text x="1006" y="1373" font-size="11" fill="#7886a8">envs/*.txt for full history.</text>

<!-- Footer -->
<line x1="30" y1="1404" x2="1330" y2="1404" stroke="#1e2650" stroke-width="1"/>
<text x="680" y="1424" text-anchor="middle" font-size="10" fill="#2a3a6a" font-family="'SF Mono','Fira Code',monospace">puhti-run-poc · system-diagram.svg · DigitalWaters-fi · 2026-07-15</text>
</svg>
